<svg width="64" height="51" viewBox="0 0 64 51" fill="none" xmlns="http://www.w3.org/2000/svg">
<path opacity="0.4" d="M49.794 22.5057L28.606 1.40051C27.7059 0.503836 26.485 5.94662e-05 25.212 0L4.8 0C3.52696 0 2.30606 0.503737 1.40589 1.4004C0.505713 2.29705 0 3.51318 0 4.78125L0 25.1135C5.96994e-05 26.3816 0.505812 27.5976 1.406 28.4943L22.594 49.5995C23.4942 50.4961 24.715 50.9998 25.988 50.9998C27.261 50.9998 28.4818 50.4961 29.382 49.5995L49.794 29.2672C50.6941 28.3706 51.1998 27.1545 51.1998 25.8865C51.1998 24.6185 50.6941 23.4024 49.794 22.5057ZM11.2 15.9375C10.2507 15.9375 9.32262 15.6571 8.53326 15.1317C7.74391 14.6063 7.12868 13.8596 6.76538 12.986C6.40208 12.1123 6.30702 11.1509 6.49223 10.2235C6.67744 9.296 7.1346 8.44407 7.80589 7.7754C8.47718 7.10673 9.33246 6.65136 10.2636 6.46687C11.1947 6.28238 12.1598 6.37707 13.0369 6.73895C13.914 7.10083 14.6636 7.71366 15.1911 8.49993C15.7185 9.2862 16 10.2106 16 11.1562C16 12.4243 15.4943 13.6404 14.5941 14.5371C13.6939 15.4338 12.473 15.9375 11.2 15.9375Z" fill="#286EF1"/>
<path d="M62.5942 29.2672L42.1821 49.5995C41.282 50.4961 40.0611 50.9998 38.7881 50.9998C37.5152 50.9998 36.2943 50.4961 35.3941 49.5995L35.3581 49.5636L52.7642 32.2256C53.5999 31.3932 54.2628 30.4049 54.7151 29.3172C55.1674 28.2295 55.4002 27.0638 55.4002 25.8865C55.4002 24.7092 55.1674 23.5434 54.7151 22.4558C54.2628 21.3681 53.5999 20.3798 52.7642 19.5473L33.1401 0H38.0121C39.2852 5.94662e-05 40.506 0.503836 41.4061 1.40051L62.5942 22.5057C63.4943 23.4024 63.9999 24.6185 63.9999 25.8865C63.9999 27.1545 63.4943 28.3706 62.5942 29.2672Z" fill="#286EF1"/>
</svg>
